<svg viewBox="0 0 512 512" xmlns="http://www.w3.org/2000/svg" fill-rule="evenodd" clip-rule="evenodd" stroke-linejoin="round" stroke-miterlimit="2"><path d="M71.19 33.84C49.383 46.788 6.413 96.156 6 109.103v21.433c0 27.168 25.395 51.044 48.448 51.044 27.679 0 50.745-22.944 50.75-50.173 0 27.226 22.274 50.173 49.96 50.173 27.683 0 49.243-22.944 49.243-50.173 0 27.226 23.677 50.173 51.356 50.173h.498c27.679 0 51.378-22.944 51.378-50.173 0 27.226 21.55 50.173 49.23 50.173 27.679 0 49.954-22.944 49.954-50.173 0 27.226 23.065 50.173 50.745 50.173 23.043 0 48.438-23.874 48.438-51.044v-21.433c-.43-12.947-43.395-62.315-65.195-75.263-67.773-2.381-114.787-2.79-184.822-2.782-70.01.005-165.507 1.097-184.797 2.782h.005zm132.863 134.945a57.163 57.163 0 01-9.742 12.541 57.88 57.88 0 01-40.569 16.554 58.039 58.039 0 01-40.65-16.558c-3.777-3.709-6.649-7.675-9.295-12.293v.009c-2.623 4.627-6.309 8.589-10.085 12.302a58.06 58.06 0 01-40.637 16.546c-1.9 0-3.867-.52-5.473-1.063-2.216 23.18-3.165 45.318-3.491 61.487v.09c-.045 8.21-.08 14.948-.122 24.31.43 48.642-4.817 157.618 21.438 184.392 40.682 9.498 115.542 13.817 190.656 13.84h.006c75.11-.023 149.974-4.342 190.657-13.817 26.254-26.78 21.008-135.755 21.437-184.38-.038-9.363-.077-16.106-.12-24.31v-.09c-.339-16.152-1.277-38.297-3.505-61.472-1.605.543-3.588 1.07-5.495 1.07a58.094 58.094 0 01-40.648-16.544c-3.788-3.72-7.462-7.682-10.092-12.302l-.012-.016c-2.639 4.613-5.513 8.586-9.3 12.293a58.046 58.046 0 01-40.644 16.553c-15.791 0-30.122-6.332-40.57-16.553a57.496 57.496 0 01-9.746-12.542 56.959 56.959 0 01-9.647 12.542 58.073 58.073 0 01-40.66 16.553c-.551 0-1.107-.023-1.65-.045h-.018c-.55.022-1.1.045-1.65.045a58.065 58.065 0 01-40.656-16.553 56.851 56.851 0 01-9.656-12.537l-.061-.052zm-41.75 53.985l-.004.019h.045c16.53.036 31.23 0 49.411 19.861 14.337-1.5 29.285-2.252 44.278-2.227h.023c14.992-.023 29.94.746 44.277 2.238 18.204-19.854 32.88-19.81 49.411-19.854h.045v-.023c7.825 0 39.054 0 60.831 61.147l23.4 83.897c17.334 62.414-5.546 63.952-34.085 63.997-42.333-1.56-65.76-32.315-65.76-63.047-23.428 3.844-50.768 5.767-78.097 5.767h-.011c-27.331 0-54.662-1.923-78.085-5.767 0 30.732-23.428 61.464-65.756 63.047-28.539-.045-51.424-1.583-34.086-63.974l23.383-83.897c21.777-61.147 53.029-61.147 60.83-61.147l-.05-.037zm93.712 48.055v.015c-.039.039-44.554 40.922-52.554 55.463l29.149-1.167v25.418c0 1.191 11.7.707 23.405.167h.016c11.707.543 23.405 1.024 23.405-.165v-25.418l29.149 1.162c-8-14.54-52.554-55.46-52.554-55.46v-.013l-.005.004-.011-.006z" fill-rule="nonzero"/></svg>